<svg width="801" height="540" viewBox="0 0 801 540" fill="none" xmlns="http://www.w3.org/2000/svg">
<path d="M800.2 495.925L0.200373 496.148M759.323 -260.73L759.546 539.27M800.147 303.925L0.146913 304.148M567.323 -260.676L567.546 539.324M800.093 111.926L0.0934526 112.148M375.323 -260.623L375.546 539.377M800.04 -80.0745L0.0399927 -79.8517M183.323 -260.569L183.546 539.43M800.187 447.925L0.187008 448.148M711.323 -260.716L711.546 539.283M800.134 255.925L0.133548 256.148M519.323 -260.663L519.546 539.337M800.08 63.9255L0.0800876 64.1483M327.323 -260.61L327.546 539.39M800.027 -128.074L0.0266277 -127.852M135.323 -260.556L135.546 539.444M800.174 399.925L0.173643 400.148M663.323 -260.703L663.546 539.297M800.12 207.925L0.120183 208.148M471.323 -260.65L471.546 539.35M800.067 15.9255L0.0667227 16.1483M279.323 -260.596L279.546 539.404M800.013 -176.074L0.0132627 -175.852M87.323 -260.543L87.5459 539.457M800.16 351.925L0.160278 352.148M615.323 -260.69L615.546 539.31M800.107 159.925L0.106818 160.148M423.323 -260.636L423.546 539.364M800.053 -32.0745L0.0533577 -31.8517M231.323 -260.583L231.546 539.417M800 -224.074L-0.000102254 -223.852M39.323 -260.529L39.5459 539.471" stroke="url(#paint0_radial_11125_47859)" stroke-opacity="0.24" stroke-width="0.49993"/>
<defs>
<radialGradient id="paint0_radial_11125_47859" cx="0" cy="0" r="1" gradientUnits="userSpaceOnUse" gradientTransform="translate(492.014 360.085) rotate(-145.09) scale(419.204)">
<stop stop-color="white"/>
<stop offset="0.5" stop-color="white"/>
<stop offset="1" stop-color="white" stop-opacity="0"/>
</radialGradient>
</defs>
</svg>
